<svg t="1602641897167" class="icon" viewBox="0 0 1024 1024" version="1.1" xmlns="http://www.w3.org/2000/svg" p-id="15178" width="32" height="32">
<path d="M467.68 320a252 252 0 0 0-8.48-51.52c-0.96-3.52-10.56 2.56-12.96 2.08a302.56 302.56 0 0 0 9.44 55.04c1.44 2.72 9.44-0.8 12-5.6zM768 243.68c1.44 0 2.08-5.44 2.08-8.96s-22.08-9.12-23.52-6.56-4.48 9.44-3.04 11.52a104.48 104.48 0 0 0 24.48 4z m12 38.08a149.92 149.92 0 0 0-40-8c-3.04 1.44-3.04 12-3.04 12s38.08 7.04 40 7.04 2.72-8.48 2.72-11.04z m-8.96 80c2.56-0.96 1.44-4.96 0.96-8.48a157.12 157.12 0 0 0-48-12.48c-1.92 1.44-5.92 8.96-4.48 10.56a348 348 0 0 0 51.2 9.92z m2.56 32a465.28 465.28 0 0 0-64-22.56c-1.92 0-5.92 9.44-5.92 11.04S768 403.2 769.12 403.2s3.52-8 4-10.4z m-24.96 38.08c2.56 0 3.04-5.92 4-8.96A276.96 276.96 0 0 0 690.72 400c-1.44 0.96-6.56 11.04-4.96 12s59.84 20 62.4 18.72z m193.6 339.84a176 176 0 0 0-112-85.92c-39.52-11.52-40.48-35.52-87.52-50.56s-80 2.56-121.44 6.08-32-18.56-60.48-26.56-92 12.96-92 12.96-7.04-79.04-7.04-81.92a702.56 702.56 0 0 1 92-32 123.04 123.04 0 0 1 54.24-10.08c16.96 0 138.08-32 188.96-47.04s66.08-20.48 67.52-54.56-28.96-43.52-41.44-69.92 12.96-28 16-65.44-18.56-45.44-40-65.44-9.44-36.48-4.96-59.52-0.96-36.96-13.44-36.96-56.96 10.56-142.56 40.96L409.12 227.2a50.72 50.72 0 0 0-4-11.52c-2.56-4.48-31.04 7.04-32 10.56S400 327.68 416 430.24s22.72 212.96 22.72 212.96a157.44 157.44 0 0 1-31.04 8c-16.96 2.56-36 3.04-75.04 6.08s-55.52 32.96-77.44 48-53.44 12.48-74.56 14.08a180.48 180.48 0 0 0-88.96 43.52C55.68 793.28 56.16 848 69.12 876.8a61.92 61.92 0 0 0 64 39.04c32 0 272-1.92 381.44-6.56s376.96 10.08 386.56 10.08 52-4 58.08-16 8-81.6-16.96-131.68z m-528-516.96c3.52-1.44 163.04-60.96 220.48-80s122.56-33.92 122.56-33.92-5.92 45.92 8.48 62.56 46.08 30.56 40 59.52-25.92 51.04-11.52 74.56 39.04 39.52 36.96 58.08-28 25.44-39.04 32-183.04 51.52-223.04 58.56a1046.72 1046.72 0 0 0-110.56 30.56z m512 629.44c-5.44 4.48-100.48 4-203.52 0.96s-230.08-0.96-352 2.56-233.44 7.52-240 5.44a32 32 0 0 1-30.56-22.56C91.68 848 82.72 791.68 134.72 768c23.84-11.2 53.92-27.52 76.96-28.48s39.52 2.08 64-16 39.04-39.04 74.56-44.48 65.44-8 75.04-9.44 16-3.04 16-3.04-0.96 12.96 2.56 14.56a49.6 49.6 0 0 0 26.56-2.56c4.96-3.52 4-24.48 4-24.48a102.56 102.56 0 0 1 64-15.04c29.44 6.56 44 28.96 78.56 27.04s76-20 116-4.96 28.64 32.64 60.16 42.88 82.56 12 110.08 62.08 28.96 113.92 23.52 118.24z m-150.56-561.44c2.56-1.44 0.96-8.48 0-12.48a135.84 135.84 0 0 0-44.48-7.52c-2.56 1.44-4.48 10.08-3.04 11.04a301.44 301.44 0 0 0 47.52 8.96zM361.6 734.24c10.56-17.44 0.8-38.08-24.48-33.92-21.44 3.68-33.12 25.44-23.52 38.88a30.88 30.88 0 0 0 48-4.96z m-24-22.24c12.96-2.08 17.76 8.48 12.48 17.28a16 16 0 0 1-24.48 2.56c-5.6-6.88 0.96-18.08 12-19.84z m291.04-14.24c16.96 4 35.52-5.44 34.08-16s-28-7.84-39.52-3.04-11.52 15.04 5.44 19.04zM841.6 784c10.56 0 33.44-11.52 20.96-24a67.36 67.36 0 0 0-49.44-10.56c-8.48 2.08-4.96 16 0 20.96a49.28 49.28 0 0 0 28.48 13.6z m-383.04-5.92c3.04-4.48 3.04-13.44-38.56-16a137.6 137.6 0 0 0-84.96 19.52 52.64 52.64 0 0 0-28.48 43.04c2.08 4 20.48 7.04 23.52 0.96s4.48-13.92 36.96-29.44 73.44-3.04 77.44-3.04 11.2-11.36 14.24-15.84z m-224-11.04c-1.92 0-11.04 9.44-9.44 11.52a293.6 293.6 0 0 0 40.48 18.08c2.56 0 4.96-4.48 6.56-8s-35.2-22.4-37.44-22.4z m-28.96 23.52c-2.56 0-11.52 7.04-11.04 8.48s66.08 42.08 68 42.56 5.44-4.96 7.52-7.52a474.56 474.56 0 0 0-64.48-44.32z m-32 15.04c-1.44 0-11.04 5.44-11.04 8.96a668.48 668.48 0 0 0 72.48 48 12.96 12.96 0 0 0 7.52-6.56 640 640 0 0 0-68.32-51.2z m-28.48 16.64a44.16 44.16 0 0 0-14.56 10.56 539.04 539.04 0 0 0 60 43.04c2.08 0.96 8.48-3.52 12-5.92s-54.88-47.68-57.44-47.68z m328.96-80a176.96 176.96 0 0 0-46.56-33.92 53.76 53.76 0 0 0-10.56 7.04s50.08 32 52 32.96 4.16-2.56 5.28-6.56z m32-23.04a248.48 248.48 0 0 0-44.48-25.92c-3.52 0-12.96 6.08-12.96 6.08a468 468 0 0 0 50.08 25.44 12 12 0 0 0 7.52-6.08z m32-19.04a301.28 301.28 0 0 0-38.56-24c-3.52 0-13.12 5.6-12 7.04a195.52 195.52 0 0 0 45.12 20.8 7.04 7.04 0 0 0 4.96-4.32z m-22.4 151.04c-3.04-1.92-10.56 1.44-19.52 0s-5.44-9.44-20.48-13.44-40.8 16-37.92 18.56a26.56 26.56 0 0 0 12.48 8.48c6.56 1.44 12.48-11.04 19.04-12.96s20.96 8 28.48 10.08a44.96 44.96 0 0 0 21.44-1.44c1.92-1.76-0.48-7.2-3.52-9.28z m320-40.48a16 16 0 0 0-9.44 12c0 4 58.08 28 60.48 28.48s3.04-1.92 4.48-6.56-51.04-34.88-56-33.92zM803.2 832c-2.56 0-12.96 8-12.48 10.56a364.48 364.48 0 0 0 51.52 29.44c3.52 0 16-0.96 18.08-4S806.24 832 803.2 832z m-138.56-120.48c-37.44-7.04-76.96 12.96-96 14.56-36.48 3.04-67.52 30.08-55.52 68.96s70.08 28 88.48 30.56 43.52 32 79.04 33.44a71.84 71.84 0 0 0 76.96-72c0.64-51.04-55.36-69.28-92.96-76.32zM736 795.68c-1.92 10.56-28 28.48-29.44 28.48a534.72 534.72 0 0 0-46.56-32c-4.96 0-13.92 7.04-11.52 8.96s39.52 27.68 37.12 29.12a42.24 42.24 0 0 1-20.96-1.92c-9.44-2.56-40-27.04-70.56-29.44s-46.56-4.48-48-20.48 12.48-29.92 32.96-29.92c33.12 0 67.04-20.96 108.96-7.52s50.72 44.32 48 54.72z m-44.8-22.4c-3.04 0-11.04 8.48-12 12s26.56 18.56 28.48 19.04a34.56 34.56 0 0 0 14.56-10.56c1.44-3.04-27.36-20.48-31.04-20.48z" fill="#2c2c2c" p-id="15179"></path>
</svg>