<svg t="1602642421826" class="icon" viewBox="0 0 1024 1024" version="1.1" xmlns="http://www.w3.org/2000/svg" p-id="32809" width="32" height="32">
<path d="M1014.906794 158.638857a215.684275 215.684275 0 0 1-57.675067 217.117619c-67.84499 65.319573-167.769603 80.881603-250.698842 46.344817L597.120894 527.691031l144.358304 126.61213c43.478128-0.819054 110.572318 32.898677 170.295021 90.232472 47.846417 46.754344 80.335567 98.627777 90.095963 138.693179l6.484179 6.279415-4.436544 4.231781c2.593672 20.681119-0.546036 37.539985-11.876286 48.460707l-67.981499 65.319573c-11.33025 10.988977-29.00817 14.333449-50.030561 11.398504l-4.504798 5.050835-5.460362-6.757198c-41.976528-8.804833-95.556324-39.997147-144.494813-87.6388-65.456082-63.203683-101.357958-135.280453-91.665817-176.642691L505.659841 615.944122l-386.593586 373.079192L0.030377 873.946198l395.26191-381.747516-48.597217-54.535359 34.809804-33.85424-7.234979 6.893706-178.895089-172.274402-10.306433 10.033414-61.975101-45.525763v0.409527l-0.341273-0.409527L52.381592 119.460764l51.395651-49.279762 86.068947 67.84499v0.409527h0.204763l46.822599 59.859212-10.374687 10.033414 178.417309 172.752183 11.94454-11.671522 55.286159 48.528962L587.019226 307.024177A214.933475 214.933475 0 0 1 635.13866 64.242859 232.952667 232.952667 0 0 1 859.900786 9.024955l-165.107678 159.306043 154.8695 149.682156 165.244186-159.374297z" p-id="32810"></path>
</svg>